# xmcd CD database file
#
# Track frame offsets:
#	150
#	16195
#	34478
#	57893
#	80866
#	102491
#	120585
#	141023
#	166084
#	187818
#
# Disc length: 2734 seconds
#
# Revision: 0
# Processed by: cddbd v1.5.2PL0 Copyright (c) Steve Scherf et al.
# Submitted via: CDex 1.50
#
DISCID=7e0aac0a
DTITLE=Life!Beats - Inner Peace
DYEAR=2000
DGENRE=New Age
TTITLE0=Breathe Deeply
TTITLE1=Journey Inward
TTITLE2=Surrendering
TTITLE3=Passages
TTITLE4=A Road Less Travelled
TTITLE5=Counterbalance
TTITLE6=Inner Focus
TTITLE7=Centering
TTITLE8=Serenity
TTITLE9=Inner Peace
EXTD=YEAR: 2000
EXTT0=
EXTT1=
EXTT2=
EXTT3=
EXTT4=
EXTT5=
EXTT6=
EXTT7=
EXTT8=
EXTT9=
PLAYORDER=
